<?xml version="1.0" encoding="iso-8859-1"?>
<!-- Generator: Adobe Illustrator 19.0.0, SVG Export Plug-In . SVG Version: 6.00 Build 0)  -->
<svg version="1.1" id="Layer_1" xmlns="http://www.w3.org/2000/svg" xmlns:xlink="http://www.w3.org/1999/xlink" x="0px" y="0px"
	 viewBox="0 0 442.48 442.48" style="enable-background:new 0 0 442.48 442.48;" xml:space="preserve">
<g>
	<g id="XMLID_3_">
		<g>
			<path style="fill:#FFFFFF;" d="M235.14,332.8l13.28,35.25h-54.36l13.27-35.25c-7.11-4.58-11.82-12.56-11.82-21.64
				c0-14.21,11.52-25.73,25.73-25.73c14.2,0,25.72,11.52,25.72,25.73C246.96,320.24,242.25,328.22,235.14,332.8z"/>
			<path style="fill:#B3B3B3;" d="M320.26,99.03V175h-35.18V99.03c0-17.06-6.64-33.09-18.7-45.14
				c-12.05-12.07-28.08-18.7-45.14-18.7c-35.21,0-63.85,28.63-63.85,63.84V210v1h-35.18v-1V99.03c0-54.6,44.42-99.03,99.03-99.03
				c26.46,0,51.33,10.31,70.02,29.01C309.97,47.71,320.26,72.57,320.26,99.03z"/>
			<path style="fill:#1EA6C6;" d="M346.24,211v231.48h-250V211h25.97h35.18H346.24z M248.42,368.05l-13.28-35.25
				c7.11-4.58,11.82-12.56,11.82-21.64c0-14.21-11.52-25.73-25.72-25.73c-14.21,0-25.73,11.52-25.73,25.73
				c0,9.08,4.71,17.06,11.82,21.64l-13.27,35.25H248.42z"/>
		</g>
	</g>
</g>
<g>
</g>
<g>
</g>
<g>
</g>
<g>
</g>
<g>
</g>
<g>
</g>
<g>
</g>
<g>
</g>
<g>
</g>
<g>
</g>
<g>
</g>
<g>
</g>
<g>
</g>
<g>
</g>
<g>
</g>
</svg>
